HIERARCHY
ROOT Hips
{
	OFFSET 0.00000 0.00000 0.00000
	CHANNELS 6 Xposition Yposition Zposition Zrotation Yrotation Xrotation 
	JOINT LHipJoint
	{
		OFFSET 0 0 0
		CHANNELS 3 Zrotation Yrotation Xrotation
		JOINT LeftHip
		{
			OFFSET 1.53139 -1.83434 0.76626
			CHANNELS 3 Zrotation Yrotation Xrotation
			JOINT LeftKnee
			{
				OFFSET 2.56112 -7.03663 0.00000
				CHANNELS 3 Zrotation Yrotation Xrotation
				JOINT LeftAnkle
				{
					OFFSET 2.59983 -7.14299 0.00000
					CHANNELS 3 Zrotation Yrotation Xrotation
					JOINT LeftToe
					{
						OFFSET 0.13742 -0.37757 2.00054
						CHANNELS 3 Zrotation Yrotation Xrotation
						End Site
						{
							OFFSET 0.00000 -0.00000 1.02897
						}
					}
				}
			}
		}
	}
	JOINT RHipJoint
	{
		OFFSET 0 0 0
		CHANNELS 3 Zrotation Yrotation Xrotation
		JOINT RightHip
		{
			OFFSET -1.40122 -1.83435 0.76627
			CHANNELS 3 Zrotation Yrotation Xrotation
			JOINT RightKnee
			{
				OFFSET -2.54052 -6.98003 0.00000
				CHANNELS 3 Zrotation Yrotation Xrotation
				JOINT RightAnkle
				{
					OFFSET -2.63179 -7.23079 0.00000
					CHANNELS 3 Zrotation Yrotation Xrotation
					JOINT RightToe
					{
						OFFSET -0.24131 -0.66299 2.03908
						CHANNELS 3 Zrotation Yrotation Xrotation
						End Site
						{
							OFFSET -0.00000 -0.00000 1.07391
						}
					}
				}
			}
		}
	}
	JOINT lowerback
	{
		OFFSET 0 0 0
		CHANNELS 3 Zrotation Yrotation Xrotation
		JOINT Chest
		{
			OFFSET 0.01174 2.10302 -0.29778
			CHANNELS 3 Zrotation Yrotation Xrotation
			JOINT Chest2
			{
				OFFSET 0.00772 2.13227 -0.01247
				CHANNELS 3 Zrotation Yrotation Xrotation
				JOINT lowerneck
				{
					OFFSET 0 0 0
					CHANNELS 3 Zrotation Yrotation Xrotation
					JOINT Neck
					{
						OFFSET -0.09219 1.60848 0.31481
						CHANNELS 3 Zrotation Yrotation Xrotation
						JOINT Head
						{
							OFFSET 0.13974 1.65456 -0.31134
							CHANNELS 3 Zrotation Yrotation Xrotation
							End Site
							{
								OFFSET 0.04742 1.69515 -0.14578
							}
						}
					}
				}
				JOINT LeftCollar
				{
					OFFSET 0 0 0
					CHANNELS 3 Zrotation Yrotation Xrotation
					JOINT LeftShoulder
					{
						OFFSET 3.24909 1.02882 -0.23993
CHANNELS 3 Zrotation Xrotation Yrotation
						JOINT LeftElbow
						{
OFFSET 0 -5.329550 -0.000000
CHANNELS 3 Zrotation Xrotation Yrotation
							JOINT LeftWrist
							{
OFFSET 0 -3.692320 -0.000000
CHANNELS 3 Zrotation Xrotation Yrotation
								JOINT lhand
								{
									OFFSET 0 0 0
CHANNELS 3 Zrotation Xrotation Yrotation
									JOINT LFingers
									{
OFFSET 0 -0.536600 -0.000000
CHANNELS 3 Zrotation Xrotation Yrotation
										End Site
										{
OFFSET 0 -0.432620 -0.000000
										}
									}
								}
								JOINT LThumb
								{
OFFSET 0 0.000000 0.000000
CHANNELS 3 Zrotation Xrotation Yrotation
									End Site
									{
OFFSET 0 -0.439220 0.439220
									}
								}
							}
						}
					}
				}
				JOINT RightCollar
				{
					OFFSET 0 0 0
					CHANNELS 3 Zrotation Yrotation Xrotation
					JOINT RightShoulder
					{
						OFFSET -3.21387 0.93002 -0.34594
CHANNELS 3 Zrotation Xrotation Yrotation
						JOINT RightElbow
						{
OFFSET 0 -5.234310 0.000000
CHANNELS 3 Zrotation Xrotation Yrotation
							JOINT RightWrist
							{
OFFSET 0 -3.553010 -0.000000
CHANNELS 3 Zrotation Xrotation Yrotation
								JOINT rhand
								{
									OFFSET 0 0 0
CHANNELS 3 Zrotation Xrotation Yrotation
									JOINT RFingers
									{
OFFSET 0 -0.772520 -0.000000
CHANNELS 3 Zrotation Xrotation Yrotation
										End Site
										{
OFFSET 0 -0.622830 -0.000000
										}
									}
								}
								JOINT RThumb
								{
OFFSET 0 0.000000 0.000000
CHANNELS 3 Zrotation Xrotation Yrotation
									End Site
									{
OFFSET 0 -0.632340 0.632340
									}
								}
							}
						}
					}
				}
			}
		}
	}
}
MOTION
Frames: 11
Frame Time: 0.008333333333333333
5.218302 18.144357 10.875349 -4.436155 122.470124 353.354047 0.000000 0.000000 0.000000 -31.886560 -1.406924 -3.906911 2.323355 9.509070 27.401338 -0.518187 -12.691160 3.430542 0.018198 0.788839 2.168426 0.000000 0.000000 0.000000 10.785764 2.362497 -18.741273 -9.802242 -17.296303 58.824149 -0.328745 2.093802 -10.306779 -0.529854 4.664437 -12.953922 0.822599 5.048013 10.792965 -2.840508 6.886030 2.672504 -4.289096 3.508713 -2.774232 -4.011310 9.492192 -15.404939 2.837741 23.160037 46.497627 7.138438 10.125656 19.966770 0.000000 0.000000 0.000000 3.695398 1.726275 -23.656462 20.466398 -31.199788 5.771182 21.930249 11.154661 -25.290616 0.000000 0.000000 0.000000 -7.125000 0.000000 0.000000 -8.521517 56.769173 2.469329 0.000000 0.000000 0.000000 -0.898835 4.929807 16.530260 -17.916085 -28.049608 -4.509721 -13.758396 4.504645 -4.057589 0.000000 0.000000 0.000000 7.125000 0.000000 0.000000 9.705237 25.786163 4.579027
4.604178 18.219330 11.046252 -4.386484 118.571175 354.037169 0.000000 0.000000 0.000000 -31.897846 1.032180 -6.794688 1.922487 8.702706 24.869643 -0.460813 -11.942447 5.073575 0.026570 1.050552 2.887846 0.000000 0.000000 0.000000 12.202215 -2.117877 -13.480526 -10.691030 -17.780521 61.774046 -0.163458 5.295676 -7.569599 -0.554774 4.764211 -13.238543 1.248760 5.719065 9.386293 -3.060793 7.750262 1.659846 -4.751975 3.898291 -2.904249 -3.160511 9.708697 -15.520236 2.060833 23.658664 46.580445 6.846654 10.295558 20.388836 0.000000 0.000000 0.000000 2.454998 6.465149 -17.414542 18.038255 -28.206076 4.567339 18.909060 11.434937 -27.000658 0.000000 0.000000 0.000000 -7.125000 0.000000 0.000000 -12.595975 57.840402 4.004351 0.000000 0.000000 0.000000 -1.660455 2.899578 17.869715 -18.284335 -28.519686 -4.684233 -13.283774 5.148426 -4.141042 0.000000 0.000000 0.000000 7.125000 0.000000 0.000000 10.054571 25.708376 4.767353
3.939933 18.216618 11.273146 -2.802684 115.797142 355.951311 0.000000 0.000000 0.000000 -31.156568 0.897290 -10.197687 1.917698 8.692575 24.838328 -0.312234 -9.981179 5.401324 0.258975 3.274093 9.042839 0.000000 0.000000 0.000000 15.442833 -6.397874 -6.260206 -8.877883 -16.727885 55.665947 0.139356 9.562015 -3.886860 -1.113392 6.701709 -18.835234 2.173572 6.038073 8.918155 -3.211681 8.225208 1.002440 -5.446556 4.102099 -3.135644 -3.551847 9.900727 -15.703051 2.788732 23.055663 45.962775 6.974968 10.118952 19.762768 0.000000 0.000000 0.000000 2.164066 9.309223 -12.874028 15.180115 -24.395971 3.300216 23.549064 16.400631 -24.961233 0.000000 0.000000 0.000000 -7.125000 0.000000 0.000000 -6.647424 56.776485 1.924554 0.000000 0.000000 0.000000 -1.887890 0.275741 17.827377 -18.903502 -29.298613 -4.983534 -15.148932 3.819827 -3.676526 0.000000 0.000000 0.000000 7.125000 0.000000 0.000000 8.685598 26.154673 4.011731
3.146427 18.150134 11.568803 -0.937848 113.910160 358.768943 0.000000 0.000000 0.000000 -30.265408 -0.018397 -14.912403 2.011174 8.889336 25.449746 -0.311617 -10.035739 5.805208 0.298873 3.514682 9.715213 0.000000 0.000000 0.000000 19.975079 -7.475437 0.706482 -5.510506 -13.936006 42.983022 0.333390 11.620814 -1.739214 -1.258839 7.112631 -20.049401 3.589923 6.545666 8.001527 -3.419043 9.026997 1.402083 -6.328509 4.545474 -1.879423 -3.834168 9.702264 -16.738551 2.932160 22.294376 45.455539 6.969837 9.705938 19.655369 0.000000 0.000000 0.000000 2.318967 8.873255 -11.544911 13.544643 -22.079986 2.654504 23.882505 18.791504 -24.795175 0.000000 0.000000 0.000000 -7.125000 0.000000 0.000000 -6.221636 56.675486 1.785553 0.000000 0.000000 0.000000 -2.635999 -4.046321 16.921442 -19.137283 -29.588931 -5.098491 -15.459475 3.576953 -3.910037 0.000000 0.000000 0.000000 7.125000 0.000000 0.000000 8.437382 25.910167 3.942823
2.158614 18.027181 11.889635 0.709246 112.059149 361.917815 0.000000 0.000000 0.000000 -29.481544 -1.986227 -20.011902 1.960294 8.782826 25.118232 -0.335149 -10.557490 6.800055 0.128553 2.309548 6.362013 0.000000 0.000000 0.000000 23.819068 -5.543737 5.754753 -2.528422 -9.887122 28.613940 0.134979 7.480845 -1.163543 -0.078550 1.804661 -4.966075 4.730035 6.838511 8.584917 -3.306434 9.525836 1.354526 -6.945140 4.780126 -2.017505 -4.397713 9.559355 -16.902443 2.809305 22.113506 45.227845 6.928204 9.505566 19.502408 0.000000 0.000000 0.000000 1.497611 8.670554 -11.902873 14.223652 -23.053347 2.915206 22.628493 18.324486 -25.210945 0.000000 0.000000 0.000000 -7.125000 0.000000 0.000000 -7.741656 56.836402 2.255666 0.000000 0.000000 0.000000 -4.572119 -7.246009 18.103228 -19.724159 -30.308571 -5.391490 -15.618972 3.052582 -3.797392 0.000000 0.000000 0.000000 7.125000 0.000000 0.000000 8.323955 26.023227 3.866511
0.973729 17.981286 12.187237 3.457257 109.766631 365.885404 0.000000 0.000000 0.000000 -27.570686 -5.224827 -23.252989 1.444110 7.596134 21.494468 -0.049305 -8.756267 11.497519 0.427179 4.193450 11.621666 0.000000 0.000000 0.000000 25.353950 -4.083549 4.751324 -1.659791 -8.118126 23.073541 -0.237084 6.574374 -9.171374 -0.206042 2.920784 -8.058513 6.669696 6.930826 10.395286 -2.722367 9.937345 1.661580 -7.655738 4.962070 -2.403289 -4.936757 9.314925 -16.610253 1.697791 22.524251 45.284668 6.581665 9.400582 19.650973 0.000000 0.000000 0.000000 0.642225 7.200358 -15.622318 16.004739 -25.526659 3.648171 22.348431 16.118401 -25.442154 0.000000 0.000000 0.000000 -7.125000 0.000000 0.000000 -8.143588 57.014003 2.409198 0.000000 0.000000 0.000000 -7.554228 -11.007932 19.664186 -20.017141 -30.663016 -5.540103 -15.804519 2.399546 -4.158723 0.000000 0.000000 0.000000 7.125000 0.000000 0.000000 8.163701 25.648691 3.862734
-0.158335 18.007371 12.498842 5.484956 108.076840 368.677234 0.000000 0.000000 0.000000 -24.318969 -9.089964 -24.255966 0.867381 5.938106 16.604954 0.334530 -6.226843 14.968210 0.061563 1.598675 4.397766 0.000000 0.000000 0.000000 25.986429 -1.296879 -0.067158 -1.800794 -8.438100 24.052833 -0.409472 6.754010 -11.629616 -0.057213 1.535294 -4.223181 6.854634 6.776807 11.639885 -1.812676 9.859561 2.404107 -6.924149 4.942399 -2.449251 -5.177270 8.923162 -16.405836 0.895868 22.300473 45.375700 6.226079 9.116292 19.849611 0.000000 0.000000 0.000000 -0.184946 5.548240 -19.033862 18.236394 -28.458292 4.661591 21.335596 14.613668 -25.962084 0.000000 0.000000 0.000000 -7.125000 0.000000 0.000000 -9.469248 57.326101 2.877463 0.000000 0.000000 0.000000 -9.413186 -14.357024 18.780343 -19.546890 -30.092494 -5.302296 -15.969854 3.446961 -4.187626 0.000000 0.000000 0.000000 7.125000 0.000000 0.000000 8.037904 25.615743 3.808315
-1.126226 18.082113 12.800061 4.502872 107.375053 367.118606 0.000000 0.000000 0.000000 -20.894642 -12.401095 -23.975966 1.385217 7.443578 21.037866 -0.260440 -9.389349 6.249316 0.005798 0.406028 1.115826 0.000000 0.000000 0.000000 25.674425 0.763079 -3.184023 -2.007078 -8.880723 25.423006 -0.424238 5.983020 -11.701048 -0.034762 1.198908 -3.296375 5.126205 6.133779 12.681640 -1.116164 8.890762 3.178547 -5.266066 4.479489 -2.739764 -5.170898 8.536716 -16.399123 1.581919 21.174857 45.828094 6.361674 8.693124 20.035478 0.000000 0.000000 0.000000 0.849964 4.974401 -23.891888 20.377053 -31.093814 5.724832 20.109450 11.780698 -26.003719 0.000000 0.000000 0.000000 -7.125000 0.000000 0.000000 -10.794714 57.103903 3.226688 0.000000 0.000000 0.000000 -9.016744 -15.226960 18.217605 -19.287737 -29.774607 -5.173002 -16.184476 3.445236 -4.488023 0.000000 0.000000 0.000000 7.125000 0.000000 0.000000 7.861344 25.301868 3.781370
-1.986535 18.204463 12.952767 2.198647 107.780265 363.884406 0.000000 0.000000 0.000000 -19.226829 -14.982548 -22.552577 3.408382 11.326119 33.390629 -0.134338 -7.718859 -1.644188 0.252175 -3.228594 -8.915995 0.000000 0.000000 0.000000 24.561548 1.876675 -5.718795 -2.197841 -9.266509 26.632674 -0.333383 4.419775 -10.284334 -0.113265 2.169476 -5.974316 4.319443 4.969266 13.119347 -0.852839 7.289010 3.556871 -4.390398 3.693818 -2.912081 -5.522151 8.044675 -16.004341 1.715063 20.187268 45.911030 6.250682 8.267871 19.957587 0.000000 0.000000 0.000000 2.194753 3.930553 -26.615890 20.558014 -31.308521 5.818647 20.795243 12.718608 -25.757637 0.000000 0.000000 0.000000 -7.125000 0.000000 0.000000 -9.946309 57.002136 2.944806 0.000000 0.000000 0.000000 -7.269452 -12.805157 18.087299 -19.780885 -30.377470 -5.420124 -16.093317 3.000554 -4.432123 0.000000 0.000000 0.000000 7.125000 0.000000 0.000000 7.932543 25.361364 3.804938
-2.776124 18.296798 13.013108 -0.047743 106.842866 360.857095 0.000000 0.000000 0.000000 -18.461990 -12.936732 -19.735980 5.965618 14.394860 44.843618 -0.284474 -10.272104 -0.642992 0.657060 -5.184212 -14.434787 0.000000 0.000000 0.000000 22.911704 2.771066 -8.025191 -2.374155 -9.605490 27.708429 -0.179049 5.167558 -7.827038 -0.031972 1.153397 -3.170918 3.747355 4.121599 12.615732 -0.901652 6.061459 3.433066 -3.924401 3.076608 -2.947753 -5.929189 7.635343 -15.446888 1.964777 19.334473 46.070806 6.221018 7.917527 19.851436 0.000000 0.000000 0.000000 3.046082 2.851095 -26.588632 19.668840 -30.241245 5.363516 21.880013 14.864973 -25.840083 0.000000 0.000000 0.000000 -7.125000 0.000000 0.000000 -8.826829 57.320612 2.677769 0.000000 0.000000 0.000000 -5.296656 -8.136761 18.714145 -20.186719 -30.866634 -5.626887 -14.949905 2.216504 -4.608225 0.000000 0.000000 0.000000 7.125000 0.000000 0.000000 8.778158 25.204560 4.251664
-3.547099 18.367267 13.004416 -3.373994 104.798982 356.828155 0.000000 0.000000 0.000000 -18.447896 -9.241064 -13.070325 7.118807 15.431158 49.322238 -0.572213 -13.307343 3.732797 0.567131 -4.820401 -13.397508 0.000000 0.000000 0.000000 20.887528 2.980136 -9.824624 -2.270028 -9.407330 27.077871 -0.035705 6.143577 -5.213636 -0.008192 0.584560 -1.606456 2.826249 3.333348 11.991058 -0.918005 4.867463 3.244918 -3.231310 2.473762 -2.987979 -6.321571 7.603403 -15.455720 1.780463 19.238320 46.060814 6.162733 7.749600 19.843728 0.000000 0.000000 0.000000 3.236403 2.048656 -25.977238 19.628004 -30.191582 5.343008 23.132598 14.866120 -25.922555 0.000000 0.000000 0.000000 -7.125000 0.000000 0.000000 -7.511860 57.680985 2.341082 0.000000 0.000000 0.000000 -4.264168 -3.853483 19.585342 -19.780703 -30.377245 -5.420058 -14.519781 1.759329 -3.167192 0.000000 0.000000 0.000000 7.125000 0.000000 0.000000 9.195362 26.682521 4.137026
